<?xml version="1.0" encoding="UTF-8" standalone="no"?>
<!DOCTYPE svg PUBLIC "-//W3C//DTD SVG 1.1//EN"
 "http://www.w3.org/Graphics/SVG/1.1/DTD/svg11.dtd">
<!-- Generated by graphviz version 2.47.0 (20210316.0004)
 -->
<!-- Title: dependencies Pages: 1 -->
<svg width="627pt" height="211pt"
 viewBox="0.00 0.00 627.00 211.00" xmlns="http://www.w3.org/2000/svg" xmlns:xlink="http://www.w3.org/1999/xlink">
<g id="graph0" class="graph" transform="scale(1 1) rotate(0) translate(4 207)">
<title>dependencies</title>
<polygon fill="white" stroke="transparent" points="-4,4 -4,-207 623,-207 623,4 -4,4"/>
<text text-anchor="start" x="288.51" y="-42.4" font-family="Times-12" font-weight="bold" font-size="14.00">Legend</text>
<polygon fill="#ffffb3" stroke="transparent" points="75.5,-10 75.5,-30 95.5,-30 95.5,-10 75.5,-10"/>
<text text-anchor="start" x="99.13" y="-15.4" font-family="Times-12" font-size="14.00"> &#160;Declarations</text>
<polygon fill="#8dd3c7" stroke="transparent" points="188.5,-10 188.5,-30 208.5,-30 208.5,-10 188.5,-10"/>
<text text-anchor="start" x="212.23" y="-15.4" font-family="Times-12" font-size="14.00"> &#160;Module</text>
<polygon fill="#80b1d3" stroke="transparent" points="274.5,-10 274.5,-30 294.5,-30 294.5,-10 274.5,-10"/>
<text text-anchor="start" x="298.28" y="-15.4" font-family="Times-12" font-size="14.00"> &#160;Bootstrap</text>
<polygon fill="#fdb462" stroke="transparent" points="371.5,-10 371.5,-30 391.5,-30 391.5,-10 371.5,-10"/>
<text text-anchor="start" x="395.17" y="-15.4" font-family="Times-12" font-size="14.00"> &#160;Providers</text>
<polygon fill="#fb8072" stroke="transparent" points="467.5,-10 467.5,-30 487.5,-30 487.5,-10 467.5,-10"/>
<text text-anchor="start" x="491.23" y="-15.4" font-family="Times-12" font-size="14.00"> &#160;Exports</text>
<g id="clust1" class="cluster">
<title>cluster_DashboardModule</title>
<polygon fill="none" stroke="black" stroke-dasharray="1,5" points="8,-70 8,-195 611,-195 611,-70 8,-70"/>
</g>
<g id="clust2" class="cluster">
<title>cluster_DashboardModule_declarations</title>
<polygon fill="none" stroke="black" points="445,-78 445,-130 603,-130 603,-78 445,-78"/>
</g>
<g id="clust4" class="cluster">
<title>cluster_DashboardModule_imports</title>
<polygon fill="none" stroke="black" points="16,-78 16,-130 437,-130 437,-78 16,-78"/>
</g>
<!-- DashboardComponent -->
<g id="node1" class="node">
<title>DashboardComponent</title>
<polygon fill="#ffffb3" stroke="black" points="594.97,-122 453.03,-122 453.03,-86 594.97,-86 594.97,-122"/>
<text text-anchor="middle" x="524" y="-99.8" font-family="Times,serif" font-size="14.00">DashboardComponent</text>
</g>
<!-- DashboardModule -->
<g id="node2" class="node">
<title>DashboardModule</title>
<polygon fill="#8dd3c7" stroke="black" points="330.19,-187 327.19,-191 306.19,-191 303.19,-187 209.81,-187 209.81,-151 330.19,-151 330.19,-187"/>
<text text-anchor="middle" x="270" y="-164.8" font-family="Times,serif" font-size="14.00">DashboardModule</text>
</g>
<!-- DashboardComponent&#45;&gt;DashboardModule -->
<g id="edge1" class="edge">
<title>DashboardComponent&#45;&gt;DashboardModule</title>
<path fill="none" stroke="black" d="M524,-122.11C524,-141.34 524,-169 524,-169 524,-169 340.19,-169 340.19,-169"/>
<polygon fill="black" stroke="black" points="340.19,-165.5 330.19,-169 340.19,-172.5 340.19,-165.5"/>
</g>
<!-- DashboardRoutingModule -->
<g id="node3" class="node">
<title>DashboardRoutingModule</title>
<polygon fill="#8dd3c7" stroke="black" points="428.81,-122 425.81,-126 404.81,-126 401.81,-122 263.19,-122 263.19,-86 428.81,-86 428.81,-122"/>
<text text-anchor="middle" x="346" y="-99.8" font-family="Times,serif" font-size="14.00">DashboardRoutingModule</text>
</g>
<!-- DashboardRoutingModule&#45;&gt;DashboardModule -->
<g id="edge2" class="edge">
<title>DashboardRoutingModule&#45;&gt;DashboardModule</title>
<path fill="none" stroke="black" d="M296.72,-122.11C296.72,-122.11 296.72,-140.99 296.72,-140.99"/>
<polygon fill="black" stroke="black" points="293.22,-140.99 296.72,-150.99 300.22,-140.99 293.22,-140.99"/>
</g>
<!-- NavbarModule -->
<g id="node4" class="node">
<title>NavbarModule</title>
<polygon fill="#8dd3c7" stroke="black" points="245.25,-122 242.25,-126 221.25,-126 218.25,-122 144.75,-122 144.75,-86 245.25,-86 245.25,-122"/>
<text text-anchor="middle" x="195" y="-99.8" font-family="Times,serif" font-size="14.00">NavbarModule</text>
</g>
<!-- NavbarModule&#45;&gt;DashboardModule -->
<g id="edge3" class="edge">
<title>NavbarModule&#45;&gt;DashboardModule</title>
<path fill="none" stroke="black" d="M227.64,-122.11C227.64,-122.11 227.64,-140.99 227.64,-140.99"/>
<polygon fill="black" stroke="black" points="224.14,-140.99 227.64,-150.99 231.14,-140.99 224.14,-140.99"/>
</g>
<!-- SidebarModule -->
<g id="node5" class="node">
<title>SidebarModule</title>
<polygon fill="#8dd3c7" stroke="black" points="126.31,-122 123.31,-126 102.31,-126 99.31,-122 23.69,-122 23.69,-86 126.31,-86 126.31,-122"/>
<text text-anchor="middle" x="75" y="-99.8" font-family="Times,serif" font-size="14.00">SidebarModule</text>
</g>
<!-- SidebarModule&#45;&gt;DashboardModule -->
<g id="edge4" class="edge">
<title>SidebarModule&#45;&gt;DashboardModule</title>
<path fill="none" stroke="black" d="M75,-122.11C75,-141.34 75,-169 75,-169 75,-169 199.9,-169 199.9,-169"/>
<polygon fill="black" stroke="black" points="199.9,-172.5 209.9,-169 199.9,-165.5 199.9,-172.5"/>
</g>
</g>
</svg>
