<?xml version="1.0" encoding="UTF-8" standalone="no"?>
<!DOCTYPE svg PUBLIC "-//W3C//DTD SVG 1.1//EN"
 "http://www.w3.org/Graphics/SVG/1.1/DTD/svg11.dtd">
<!-- Generated by graphviz version 2.47.0 (20210316.0004)
 -->
<!-- Title: dependencies Pages: 1 -->
<svg width="643pt" height="211pt"
 viewBox="0.00 0.00 643.00 211.00" xmlns="http://www.w3.org/2000/svg" xmlns:xlink="http://www.w3.org/1999/xlink">
<g id="graph0" class="graph" transform="scale(1 1) rotate(0) translate(4 207)">
<title>dependencies</title>
<polygon fill="white" stroke="transparent" points="-4,4 -4,-207 639,-207 639,4 -4,4"/>
<text text-anchor="start" x="296.51" y="-42.4" font-family="Times-12" font-weight="bold" font-size="14.00">Legend</text>
<polygon fill="#ffffb3" stroke="transparent" points="83.5,-10 83.5,-30 103.5,-30 103.5,-10 83.5,-10"/>
<text text-anchor="start" x="107.13" y="-15.4" font-family="Times-12" font-size="14.00"> &#160;Declarations</text>
<polygon fill="#8dd3c7" stroke="transparent" points="196.5,-10 196.5,-30 216.5,-30 216.5,-10 196.5,-10"/>
<text text-anchor="start" x="220.23" y="-15.4" font-family="Times-12" font-size="14.00"> &#160;Module</text>
<polygon fill="#80b1d3" stroke="transparent" points="282.5,-10 282.5,-30 302.5,-30 302.5,-10 282.5,-10"/>
<text text-anchor="start" x="306.28" y="-15.4" font-family="Times-12" font-size="14.00"> &#160;Bootstrap</text>
<polygon fill="#fdb462" stroke="transparent" points="379.5,-10 379.5,-30 399.5,-30 399.5,-10 379.5,-10"/>
<text text-anchor="start" x="403.17" y="-15.4" font-family="Times-12" font-size="14.00"> &#160;Providers</text>
<polygon fill="#fb8072" stroke="transparent" points="475.5,-10 475.5,-30 495.5,-30 495.5,-10 475.5,-10"/>
<text text-anchor="start" x="499.23" y="-15.4" font-family="Times-12" font-size="14.00"> &#160;Exports</text>
<g id="clust1" class="cluster">
<title>cluster_ExpenditureModule</title>
<polygon fill="none" stroke="black" stroke-dasharray="1,5" points="8,-70 8,-195 627,-195 627,-70 8,-70"/>
</g>
<g id="clust2" class="cluster">
<title>cluster_ExpenditureModule_declarations</title>
<polygon fill="none" stroke="black" points="453,-78 453,-130 619,-130 619,-78 453,-78"/>
</g>
<g id="clust4" class="cluster">
<title>cluster_ExpenditureModule_imports</title>
<polygon fill="none" stroke="black" points="16,-78 16,-130 445,-130 445,-78 16,-78"/>
</g>
<!-- ExpenditureComponent -->
<g id="node1" class="node">
<title>ExpenditureComponent</title>
<polygon fill="#ffffb3" stroke="black" points="610.76,-122 461.24,-122 461.24,-86 610.76,-86 610.76,-122"/>
<text text-anchor="middle" x="536" y="-99.8" font-family="Times,serif" font-size="14.00">ExpenditureComponent</text>
</g>
<!-- ExpenditureModule -->
<g id="node2" class="node">
<title>ExpenditureModule</title>
<polygon fill="#8dd3c7" stroke="black" points="335.97,-187 332.97,-191 311.97,-191 308.97,-187 208.03,-187 208.03,-151 335.97,-151 335.97,-187"/>
<text text-anchor="middle" x="272" y="-164.8" font-family="Times,serif" font-size="14.00">ExpenditureModule</text>
</g>
<!-- ExpenditureComponent&#45;&gt;ExpenditureModule -->
<g id="edge1" class="edge">
<title>ExpenditureComponent&#45;&gt;ExpenditureModule</title>
<path fill="none" stroke="black" d="M536,-122.11C536,-141.34 536,-169 536,-169 536,-169 346.24,-169 346.24,-169"/>
<polygon fill="black" stroke="black" points="346.24,-165.5 336.24,-169 346.24,-172.5 346.24,-165.5"/>
</g>
<!-- ExpenditureRoutingModule -->
<g id="node3" class="node">
<title>ExpenditureRoutingModule</title>
<polygon fill="#8dd3c7" stroke="black" points="436.59,-122 433.59,-126 412.59,-126 409.59,-122 263.41,-122 263.41,-86 436.59,-86 436.59,-122"/>
<text text-anchor="middle" x="350" y="-99.8" font-family="Times,serif" font-size="14.00">ExpenditureRoutingModule</text>
</g>
<!-- ExpenditureRoutingModule&#45;&gt;ExpenditureModule -->
<g id="edge2" class="edge">
<title>ExpenditureRoutingModule&#45;&gt;ExpenditureModule</title>
<path fill="none" stroke="black" d="M299.72,-122.11C299.72,-122.11 299.72,-140.99 299.72,-140.99"/>
<polygon fill="black" stroke="black" points="296.22,-140.99 299.72,-150.99 303.22,-140.99 296.22,-140.99"/>
</g>
<!-- NavbarModule -->
<g id="node4" class="node">
<title>NavbarModule</title>
<polygon fill="#8dd3c7" stroke="black" points="245.25,-122 242.25,-126 221.25,-126 218.25,-122 144.75,-122 144.75,-86 245.25,-86 245.25,-122"/>
<text text-anchor="middle" x="195" y="-99.8" font-family="Times,serif" font-size="14.00">NavbarModule</text>
</g>
<!-- NavbarModule&#45;&gt;ExpenditureModule -->
<g id="edge3" class="edge">
<title>NavbarModule&#45;&gt;ExpenditureModule</title>
<path fill="none" stroke="black" d="M226.69,-122.11C226.69,-122.11 226.69,-140.99 226.69,-140.99"/>
<polygon fill="black" stroke="black" points="223.19,-140.99 226.69,-150.99 230.19,-140.99 223.19,-140.99"/>
</g>
<!-- SidebarModule -->
<g id="node5" class="node">
<title>SidebarModule</title>
<polygon fill="#8dd3c7" stroke="black" points="126.31,-122 123.31,-126 102.31,-126 99.31,-122 23.69,-122 23.69,-86 126.31,-86 126.31,-122"/>
<text text-anchor="middle" x="75" y="-99.8" font-family="Times,serif" font-size="14.00">SidebarModule</text>
</g>
<!-- SidebarModule&#45;&gt;ExpenditureModule -->
<g id="edge4" class="edge">
<title>SidebarModule&#45;&gt;ExpenditureModule</title>
<path fill="none" stroke="black" d="M75,-122.11C75,-141.34 75,-169 75,-169 75,-169 197.77,-169 197.77,-169"/>
<polygon fill="black" stroke="black" points="197.77,-172.5 207.77,-169 197.77,-165.5 197.77,-172.5"/>
</g>
</g>
</svg>
