<?xml version="1.0" encoding="UTF-8" standalone="no"?>
<!DOCTYPE svg PUBLIC "-//W3C//DTD SVG 1.1//EN"
 "http://www.w3.org/Graphics/SVG/1.1/DTD/svg11.dtd">
<!-- Generated by graphviz version 2.47.0 (20210316.0004)
 -->
<!-- Title: dependencies Pages: 1 -->
<svg width="587pt" height="211pt"
 viewBox="0.00 0.00 587.00 211.00" xmlns="http://www.w3.org/2000/svg" xmlns:xlink="http://www.w3.org/1999/xlink">
<g id="graph0" class="graph" transform="scale(1 1) rotate(0) translate(4 207)">
<title>dependencies</title>
<polygon fill="white" stroke="transparent" points="-4,4 -4,-207 583,-207 583,4 -4,4"/>
<text text-anchor="start" x="268.51" y="-42.4" font-family="Times-12" font-weight="bold" font-size="14.00">Legend</text>
<polygon fill="#ffffb3" stroke="transparent" points="55.5,-10 55.5,-30 75.5,-30 75.5,-10 55.5,-10"/>
<text text-anchor="start" x="79.13" y="-15.4" font-family="Times-12" font-size="14.00"> &#160;Declarations</text>
<polygon fill="#8dd3c7" stroke="transparent" points="168.5,-10 168.5,-30 188.5,-30 188.5,-10 168.5,-10"/>
<text text-anchor="start" x="192.23" y="-15.4" font-family="Times-12" font-size="14.00"> &#160;Module</text>
<polygon fill="#80b1d3" stroke="transparent" points="254.5,-10 254.5,-30 274.5,-30 274.5,-10 254.5,-10"/>
<text text-anchor="start" x="278.28" y="-15.4" font-family="Times-12" font-size="14.00"> &#160;Bootstrap</text>
<polygon fill="#fdb462" stroke="transparent" points="351.5,-10 351.5,-30 371.5,-30 371.5,-10 351.5,-10"/>
<text text-anchor="start" x="375.17" y="-15.4" font-family="Times-12" font-size="14.00"> &#160;Providers</text>
<polygon fill="#fb8072" stroke="transparent" points="447.5,-10 447.5,-30 467.5,-30 467.5,-10 447.5,-10"/>
<text text-anchor="start" x="471.23" y="-15.4" font-family="Times-12" font-size="14.00"> &#160;Exports</text>
<g id="clust1" class="cluster">
<title>cluster_SystemModule</title>
<polygon fill="none" stroke="black" stroke-dasharray="1,5" points="8,-70 8,-195 571,-195 571,-70 8,-70"/>
</g>
<g id="clust2" class="cluster">
<title>cluster_SystemModule_declarations</title>
<polygon fill="none" stroke="black" points="425,-78 425,-130 563,-130 563,-78 425,-78"/>
</g>
<g id="clust4" class="cluster">
<title>cluster_SystemModule_imports</title>
<polygon fill="none" stroke="black" points="16,-78 16,-130 417,-130 417,-78 16,-78"/>
</g>
<!-- SystemComponent -->
<g id="node1" class="node">
<title>SystemComponent</title>
<polygon fill="#ffffb3" stroke="black" points="555.06,-122 432.94,-122 432.94,-86 555.06,-86 555.06,-122"/>
<text text-anchor="middle" x="494" y="-99.8" font-family="Times,serif" font-size="14.00">SystemComponent</text>
</g>
<!-- SystemModule -->
<g id="node2" class="node">
<title>SystemModule</title>
<polygon fill="#8dd3c7" stroke="black" points="349.27,-187 346.27,-191 325.27,-191 322.27,-187 248.73,-187 248.73,-151 349.27,-151 349.27,-187"/>
<text text-anchor="middle" x="299" y="-164.8" font-family="Times,serif" font-size="14.00">SystemModule</text>
</g>
<!-- SystemComponent&#45;&gt;SystemModule -->
<g id="edge1" class="edge">
<title>SystemComponent&#45;&gt;SystemModule</title>
<path fill="none" stroke="black" d="M494,-122.11C494,-141.34 494,-169 494,-169 494,-169 359.47,-169 359.47,-169"/>
<polygon fill="black" stroke="black" points="359.47,-165.5 349.47,-169 359.47,-172.5 359.47,-165.5"/>
</g>
<!-- NavbarModule -->
<g id="node3" class="node">
<title>NavbarModule</title>
<polygon fill="#8dd3c7" stroke="black" points="409.25,-122 406.25,-126 385.25,-126 382.25,-122 308.75,-122 308.75,-86 409.25,-86 409.25,-122"/>
<text text-anchor="middle" x="359" y="-99.8" font-family="Times,serif" font-size="14.00">NavbarModule</text>
</g>
<!-- NavbarModule&#45;&gt;SystemModule -->
<g id="edge2" class="edge">
<title>NavbarModule&#45;&gt;SystemModule</title>
<path fill="none" stroke="black" d="M329.01,-122.11C329.01,-122.11 329.01,-140.99 329.01,-140.99"/>
<polygon fill="black" stroke="black" points="325.51,-140.99 329.01,-150.99 332.51,-140.99 325.51,-140.99"/>
</g>
<!-- SidebarModule -->
<g id="node4" class="node">
<title>SidebarModule</title>
<polygon fill="#8dd3c7" stroke="black" points="290.31,-122 287.31,-126 266.31,-126 263.31,-122 187.69,-122 187.69,-86 290.31,-86 290.31,-122"/>
<text text-anchor="middle" x="239" y="-99.8" font-family="Times,serif" font-size="14.00">SidebarModule</text>
</g>
<!-- SidebarModule&#45;&gt;SystemModule -->
<g id="edge3" class="edge">
<title>SidebarModule&#45;&gt;SystemModule</title>
<path fill="none" stroke="black" d="M269.38,-122.11C269.38,-122.11 269.38,-140.99 269.38,-140.99"/>
<polygon fill="black" stroke="black" points="265.89,-140.99 269.38,-150.99 272.89,-140.99 265.89,-140.99"/>
</g>
<!-- SystemRoutingModule -->
<g id="node5" class="node">
<title>SystemRoutingModule</title>
<polygon fill="#8dd3c7" stroke="black" points="169.89,-122 166.89,-126 145.89,-126 142.89,-122 24.11,-122 24.11,-86 169.89,-86 169.89,-122"/>
<text text-anchor="middle" x="97" y="-99.8" font-family="Times,serif" font-size="14.00">SystemRoutingModule</text>
</g>
<!-- SystemRoutingModule&#45;&gt;SystemModule -->
<g id="edge4" class="edge">
<title>SystemRoutingModule&#45;&gt;SystemModule</title>
<path fill="none" stroke="black" d="M97,-122.11C97,-141.34 97,-169 97,-169 97,-169 238.55,-169 238.55,-169"/>
<polygon fill="black" stroke="black" points="238.55,-172.5 248.55,-169 238.55,-165.5 238.55,-172.5"/>
</g>
</g>
</svg>
