<?xml version="1.0" encoding="UTF-8" standalone="no"?>
<!DOCTYPE svg PUBLIC "-//W3C//DTD SVG 1.1//EN"
 "http://www.w3.org/Graphics/SVG/1.1/DTD/svg11.dtd">
<!-- Generated by graphviz version 2.47.0 (20210316.0004)
 -->
<!-- Title: dependencies Pages: 1 -->
<svg width="607pt" height="211pt"
 viewBox="0.00 0.00 607.00 211.00" xmlns="http://www.w3.org/2000/svg" xmlns:xlink="http://www.w3.org/1999/xlink">
<g id="graph0" class="graph" transform="scale(1 1) rotate(0) translate(4 207)">
<title>dependencies</title>
<polygon fill="white" stroke="transparent" points="-4,4 -4,-207 603,-207 603,4 -4,4"/>
<text text-anchor="start" x="278.51" y="-42.4" font-family="Times-12" font-weight="bold" font-size="14.00">Legend</text>
<polygon fill="#ffffb3" stroke="transparent" points="65.5,-10 65.5,-30 85.5,-30 85.5,-10 65.5,-10"/>
<text text-anchor="start" x="89.13" y="-15.4" font-family="Times-12" font-size="14.00"> &#160;Declarations</text>
<polygon fill="#8dd3c7" stroke="transparent" points="178.5,-10 178.5,-30 198.5,-30 198.5,-10 178.5,-10"/>
<text text-anchor="start" x="202.23" y="-15.4" font-family="Times-12" font-size="14.00"> &#160;Module</text>
<polygon fill="#80b1d3" stroke="transparent" points="264.5,-10 264.5,-30 284.5,-30 284.5,-10 264.5,-10"/>
<text text-anchor="start" x="288.28" y="-15.4" font-family="Times-12" font-size="14.00"> &#160;Bootstrap</text>
<polygon fill="#fdb462" stroke="transparent" points="361.5,-10 361.5,-30 381.5,-30 381.5,-10 361.5,-10"/>
<text text-anchor="start" x="385.17" y="-15.4" font-family="Times-12" font-size="14.00"> &#160;Providers</text>
<polygon fill="#fb8072" stroke="transparent" points="457.5,-10 457.5,-30 477.5,-30 477.5,-10 457.5,-10"/>
<text text-anchor="start" x="481.23" y="-15.4" font-family="Times-12" font-size="14.00"> &#160;Exports</text>
<g id="clust1" class="cluster">
<title>cluster_CategoryModule</title>
<polygon fill="none" stroke="black" stroke-dasharray="1,5" points="8,-70 8,-195 591,-195 591,-70 8,-70"/>
</g>
<g id="clust2" class="cluster">
<title>cluster_CategoryModule_declarations</title>
<polygon fill="none" stroke="black" points="435,-78 435,-130 583,-130 583,-78 435,-78"/>
</g>
<g id="clust4" class="cluster">
<title>cluster_CategoryModule_imports</title>
<polygon fill="none" stroke="black" points="16,-78 16,-130 427,-130 427,-78 16,-78"/>
</g>
<!-- CategoryComponent -->
<g id="node1" class="node">
<title>CategoryComponent</title>
<polygon fill="#ffffb3" stroke="black" points="575.15,-122 442.85,-122 442.85,-86 575.15,-86 575.15,-122"/>
<text text-anchor="middle" x="509" y="-99.8" font-family="Times,serif" font-size="14.00">CategoryComponent</text>
</g>
<!-- CategoryModule -->
<g id="node2" class="node">
<title>CategoryModule</title>
<polygon fill="#8dd3c7" stroke="black" points="323.37,-187 320.37,-191 299.37,-191 296.37,-187 212.63,-187 212.63,-151 323.37,-151 323.37,-187"/>
<text text-anchor="middle" x="268" y="-164.8" font-family="Times,serif" font-size="14.00">CategoryModule</text>
</g>
<!-- CategoryComponent&#45;&gt;CategoryModule -->
<g id="edge1" class="edge">
<title>CategoryComponent&#45;&gt;CategoryModule</title>
<path fill="none" stroke="black" d="M509,-122.11C509,-141.34 509,-169 509,-169 509,-169 333.59,-169 333.59,-169"/>
<polygon fill="black" stroke="black" points="333.59,-165.5 323.59,-169 333.59,-172.5 333.59,-165.5"/>
</g>
<!-- CategoryRoutingModule -->
<g id="node3" class="node">
<title>CategoryRoutingModule</title>
<polygon fill="#8dd3c7" stroke="black" points="418.98,-122 415.98,-126 394.98,-126 391.98,-122 263.02,-122 263.02,-86 418.98,-86 418.98,-122"/>
<text text-anchor="middle" x="341" y="-99.8" font-family="Times,serif" font-size="14.00">CategoryRoutingModule</text>
</g>
<!-- CategoryRoutingModule&#45;&gt;CategoryModule -->
<g id="edge2" class="edge">
<title>CategoryRoutingModule&#45;&gt;CategoryModule</title>
<path fill="none" stroke="black" d="M293.22,-122.11C293.22,-122.11 293.22,-140.99 293.22,-140.99"/>
<polygon fill="black" stroke="black" points="289.72,-140.99 293.22,-150.99 296.72,-140.99 289.72,-140.99"/>
</g>
<!-- NavbarModule -->
<g id="node4" class="node">
<title>NavbarModule</title>
<polygon fill="#8dd3c7" stroke="black" points="245.25,-122 242.25,-126 221.25,-126 218.25,-122 144.75,-122 144.75,-86 245.25,-86 245.25,-122"/>
<text text-anchor="middle" x="195" y="-99.8" font-family="Times,serif" font-size="14.00">NavbarModule</text>
</g>
<!-- NavbarModule&#45;&gt;CategoryModule -->
<g id="edge3" class="edge">
<title>NavbarModule&#45;&gt;CategoryModule</title>
<path fill="none" stroke="black" d="M228.97,-122.11C228.97,-122.11 228.97,-140.99 228.97,-140.99"/>
<polygon fill="black" stroke="black" points="225.47,-140.99 228.97,-150.99 232.47,-140.99 225.47,-140.99"/>
</g>
<!-- SidebarModule -->
<g id="node5" class="node">
<title>SidebarModule</title>
<polygon fill="#8dd3c7" stroke="black" points="126.31,-122 123.31,-126 102.31,-126 99.31,-122 23.69,-122 23.69,-86 126.31,-86 126.31,-122"/>
<text text-anchor="middle" x="75" y="-99.8" font-family="Times,serif" font-size="14.00">SidebarModule</text>
</g>
<!-- SidebarModule&#45;&gt;CategoryModule -->
<g id="edge4" class="edge">
<title>SidebarModule&#45;&gt;CategoryModule</title>
<path fill="none" stroke="black" d="M75,-122.11C75,-141.34 75,-169 75,-169 75,-169 202.44,-169 202.44,-169"/>
<polygon fill="black" stroke="black" points="202.44,-172.5 212.44,-169 202.44,-165.5 202.44,-172.5"/>
</g>
</g>
</svg>
